# Blender 4.0.0
# www.blender.org
o Plane
v -16.596443 0.000000 32.000000
v -20.000000 0.000000 28.596443
v 20.000000 0.000000 28.596443
v 16.596443 0.000000 32.000000
v -16.596443 0.000000 -32.000000
v -20.000000 0.000000 -28.596443
v 16.596443 0.000000 -32.000000
v 20.000000 0.000000 -28.596443
v 18.360367 0.000000 -27.917284
v 15.917285 0.000000 -30.360367
v 18.360367 2.785368 -27.917284
v 15.917285 2.785368 -30.360367
v 20.000000 2.785368 -28.596443
v 16.596443 2.785368 -32.000000
v -16.596443 0.000000 32.000000
v -20.000000 0.000000 28.596443
v 20.000000 0.000000 28.596443
v 16.596443 0.000000 32.000000
v -16.596443 0.000000 -32.000000
v -20.000000 0.000000 -28.596443
v 16.596443 0.000000 -32.000000
v 20.000000 0.000000 -28.596443
v 18.360367 0.000000 0.000000
v -20.000000 0.000000 0.000000
v 20.000000 0.000000 0.000000
v 18.360367 2.785368 0.000000
v 20.000000 2.785368 0.000000
v -20.000000 0.000000 0.000000
v 20.000000 0.000000 0.000000
v 0.000000 0.000000 -30.360367
v 0.000000 0.000000 -32.000000
v 0.000000 2.785368 -30.360367
v 0.000000 0.000000 -32.000000
v 0.000000 0.000000 0.000000
v 10.001798 2.785368 -30.360367
v 10.001798 0.000000 -32.000000
v 10.002748 0.000000 -30.360367
v 0.000000 0.000000 -30.360367
v 0.000000 2.785368 -30.360367
v 8.523453 0.000000 -32.000000
v 8.523453 2.785368 -30.360367
v 8.523453 2.785368 -32.000000
v 8.523453 0.000000 -32.000000
v 8.523927 0.000000 -30.360367
v 8.523453 2.785368 -30.360367
v 10.001798 0.000000 -32.000000
v 10.001798 0.000000 -35.443951
v 10.001798 2.785368 -35.443951
v 8.523453 0.000000 -36.973942
v 8.523453 2.785368 -36.973942
v 0.000000 0.000000 -35.443951
v 0.000000 2.785368 -35.443951
v 0.000000 0.000000 -36.973942
v 0.000000 2.785368 -36.973942
v 8.523453 0.000000 -34.443951
v 7.523453 0.000000 -35.443951
v 8.523453 0.000000 -34.443951
v 8.523453 0.000000 -36.443951
v 9.523453 0.000000 -35.443951
v 7.523453 2.785368 -35.443951
v 8.523453 2.785368 -34.443951
v 9.523453 2.785368 -35.443951
v 8.523453 2.785368 -36.443951
v 10.001798 2.785368 -35.973942
v 9.001798 2.785368 -36.973942
v 9.001798 0.000000 -36.973942
v 10.001798 0.000000 -35.973942
v 10.001798 0.000000 -33.000000
v 11.001798 0.000000 -32.000000
v 10.001798 0.000000 -32.000000
v 9.001798 0.000000 -32.000000
v 11.001798 2.785368 -32.000000
v 10.001798 2.785368 -33.000000
v 9.001798 2.785368 -32.000000
v 10.001798 2.785368 -31.000000
v 16.596443 0.000000 32.000000
v 20.000000 0.000000 28.596443
v -20.000000 0.000000 28.596443
v -16.596443 0.000000 32.000000
v 16.596443 0.000000 -32.000000
v 20.000000 0.000000 -28.596443
v -16.596443 0.000000 -32.000000
v -20.000000 0.000000 -28.596443
v -18.360367 0.000000 -27.917284
v -15.917285 0.000000 -30.360367
v -18.360367 2.785368 -27.917284
v -15.917285 2.785368 -30.360367
v -20.000000 2.785368 -28.596443
v -16.596443 2.785368 -32.000000
v 16.596443 0.000000 32.000000
v 20.000000 0.000000 28.596443
v -20.000000 0.000000 28.596443
v -16.596443 0.000000 32.000000
v 16.596443 0.000000 -32.000000
v 20.000000 0.000000 -28.596443
v -16.596443 0.000000 -32.000000
v -20.000000 0.000000 -28.596443
v -18.360367 0.000000 0.000000
v 20.000000 0.000000 0.000000
v -20.000000 0.000000 0.000000
v -18.360367 2.785368 0.000000
v -20.000000 2.785368 0.000000
v 20.000000 0.000000 0.000000
v -20.000000 0.000000 0.000000
v -10.001798 2.785368 -30.360367
v -10.001798 0.000000 -32.000000
v -10.002748 0.000000 -30.360367
v -8.523453 0.000000 -32.000000
v -8.523453 2.785368 -30.360367
v -8.523453 2.785368 -32.000000
v -8.523453 0.000000 -32.000000
v -8.523927 0.000000 -30.360367
v -8.523453 2.785368 -30.360367
v -10.001798 0.000000 -32.000000
v -10.001798 0.000000 -35.443951
v -10.001798 2.785368 -35.443951
v -8.523453 0.000000 -36.973942
v -8.523453 2.785368 -36.973942
v -8.523453 0.000000 -34.443951
v -7.523453 0.000000 -35.443951
v -8.523453 0.000000 -34.443951
v -8.523453 0.000000 -36.443951
v -9.523453 0.000000 -35.443951
v -7.523453 2.785368 -35.443951
v -8.523453 2.785368 -34.443951
v -9.523453 2.785368 -35.443951
v -8.523453 2.785368 -36.443951
v -10.001798 2.785368 -35.973942
v -9.001798 2.785368 -36.973942
v -9.001798 0.000000 -36.973942
v -10.001798 0.000000 -35.973942
v -10.001798 0.000000 -33.000000
v -11.001798 0.000000 -32.000000
v -10.001798 0.000000 -32.000000
v -9.001798 0.000000 -32.000000
v -11.001798 2.785368 -32.000000
v -10.001798 2.785368 -33.000000
v -9.001798 2.785368 -32.000000
v -10.001798 2.785368 -31.000000
v -16.596443 0.000000 -32.000000
v -20.000000 0.000000 -28.596443
v 20.000000 0.000000 -28.596443
v 16.596443 0.000000 -32.000000
v -16.596443 0.000000 32.000000
v -20.000000 0.000000 28.596443
v 16.596443 0.000000 32.000000
v 20.000000 0.000000 28.596443
v 18.360367 0.000000 27.917284
v 15.917285 0.000000 30.360367
v 18.360367 2.785368 27.917284
v 15.917285 2.785368 30.360367
v 20.000000 2.785368 28.596443
v 16.596443 2.785368 32.000000
v -16.596443 0.000000 -32.000000
v -20.000000 0.000000 -28.596443
v 20.000000 0.000000 -28.596443
v 16.596443 0.000000 -32.000000
v -16.596443 0.000000 32.000000
v -20.000000 0.000000 28.596443
v 16.596443 0.000000 32.000000
v 20.000000 0.000000 28.596443
v 0.000000 0.000000 30.360367
v 0.000000 0.000000 32.000000
v 0.000000 2.785368 30.360367
v 0.000000 0.000000 32.000000
v 10.001798 2.785368 30.360367
v 10.001798 0.000000 32.000000
v 10.002748 0.000000 30.360367
v 0.000000 0.000000 30.360367
v 0.000000 2.785368 30.360367
v 8.523453 0.000000 32.000000
v 8.523453 2.785368 30.360367
v 8.523453 2.785368 32.000000
v 8.523453 0.000000 32.000000
v 8.523927 0.000000 30.360367
v 8.523453 2.785368 30.360367
v 10.001798 0.000000 32.000000
v 10.001798 0.000000 35.443951
v 10.001798 2.785368 35.443951
v 8.523453 0.000000 36.973942
v 8.523453 2.785368 36.973942
v 0.000000 0.000000 35.443951
v 0.000000 2.785368 35.443951
v 0.000000 0.000000 36.973942
v 0.000000 2.785368 36.973942
v 8.523453 0.000000 34.443951
v 7.523453 0.000000 35.443951
v 8.523453 0.000000 34.443951
v 8.523453 0.000000 36.443951
v 9.523453 0.000000 35.443951
v 7.523453 2.785368 35.443951
v 8.523453 2.785368 34.443951
v 9.523453 2.785368 35.443951
v 8.523453 2.785368 36.443951
v 10.001798 2.785368 35.973942
v 9.001798 2.785368 36.973942
v 9.001798 0.000000 36.973942
v 10.001798 0.000000 35.973942
v 10.001798 0.000000 33.000000
v 11.001798 0.000000 32.000000
v 10.001798 0.000000 32.000000
v 9.001798 0.000000 32.000000
v 11.001798 2.785368 32.000000
v 10.001798 2.785368 33.000000
v 9.001798 2.785368 32.000000
v 10.001798 2.785368 31.000000
v 16.596443 0.000000 -32.000000
v 20.000000 0.000000 -28.596443
v -20.000000 0.000000 -28.596443
v -16.596443 0.000000 -32.000000
v 16.596443 0.000000 32.000000
v 20.000000 0.000000 28.596443
v -16.596443 0.000000 32.000000
v -20.000000 0.000000 28.596443
v -18.360367 0.000000 27.917284
v -15.917285 0.000000 30.360367
v -18.360367 2.785368 27.917284
v -15.917285 2.785368 30.360367
v -20.000000 2.785368 28.596443
v -16.596443 2.785368 32.000000
v 16.596443 0.000000 -32.000000
v 20.000000 0.000000 -28.596443
v -20.000000 0.000000 -28.596443
v -16.596443 0.000000 -32.000000
v 16.596443 0.000000 32.000000
v 20.000000 0.000000 28.596443
v -16.596443 0.000000 32.000000
v -20.000000 0.000000 28.596443
v -10.001798 2.785368 30.360367
v -10.001798 0.000000 32.000000
v -10.002748 0.000000 30.360367
v -8.523453 0.000000 32.000000
v -8.523453 2.785368 30.360367
v -8.523453 2.785368 32.000000
v -8.523453 0.000000 32.000000
v -8.523927 0.000000 30.360367
v -8.523453 2.785368 30.360367
v -10.001798 0.000000 32.000000
v -10.001798 0.000000 35.443951
v -10.001798 2.785368 35.443951
v -8.523453 0.000000 36.973942
v -8.523453 2.785368 36.973942
v -8.523453 0.000000 34.443951
v -7.523453 0.000000 35.443951
v -8.523453 0.000000 34.443951
v -8.523453 0.000000 36.443951
v -9.523453 0.000000 35.443951
v -7.523453 2.785368 35.443951
v -8.523453 2.785368 34.443951
v -9.523453 2.785368 35.443951
v -8.523453 2.785368 36.443951
v -10.001798 2.785368 35.973942
v -9.001798 2.785368 36.973942
v -9.001798 0.000000 36.973942
v -10.001798 0.000000 35.973942
v -10.001798 0.000000 33.000000
v -11.001798 0.000000 32.000000
v -10.001798 0.000000 32.000000
v -9.001798 0.000000 32.000000
v -11.001798 2.785368 32.000000
v -10.001798 2.785368 33.000000
v -9.001798 2.785368 32.000000
v -10.001798 2.785368 31.000000
vn -0.0000 1.0000 -0.0000
vn 0.7071 -0.0000 -0.7071
vn -0.7071 -0.0000 0.7071
vn 1.0000 -0.0000 -0.0000
vn -0.0000 -1.0000 -0.0000
vn -1.0000 -0.0000 -0.0000
vn -0.0000 -0.0000 1.0000
vn -0.0000 -0.0000 -1.0000
vn -1.0000 -0.0000 0.0003
vn -0.7071 -0.0000 -0.7071
vn 0.7071 -0.0000 0.7071
vn 1.0000 -0.0000 0.0003
vn -1.0000 -0.0000 -0.0003
vn 1.0000 -0.0000 -0.0003
vn -1.0000 -0.0002 -0.0000
vn 1.0000 -0.0002 -0.0000
vt 0.959009 0.500000
vt 0.897932 0.974381
vt 0.707522 0.974381
vt 0.000000 0.000000
vt 0.959009 0.936208
vt 0.914911 1.000000
vt 0.707456 0.974381
vt 0.637291 1.000000
vt 0.603728 1.000000
vt 0.738914 1.000000
vt 0.707456 0.984375
vt 1.000000 0.500000
vt 1.000000 0.946819
vt 0.707456 1.000000
vt 0.500000 0.974381
vt 0.603761 0.974381
vt 0.603728 0.974381
vt 0.603728 0.974381
vt 0.603728 1.000000
vt 0.673893 1.000000
vt 0.500000 0.500000
s 0
f 23/1/1 10/2/1 37/3/1
f 7/4/2 13/4/2 8/4/2
f 9/5/3 12/2/3 10/2/3
f 8/4/4 27/4/4 25/4/4
f 11/5/1 14/6/1 12/2/1
f 35/7/1 74/8/1 42/9/1
f 7/4/1 22/4/1 21/4/1
f 12/2/1 72/10/1 75/11/1
f 22/4/5 10/2/5 21/4/5
f 11/5/1 27/12/1 13/13/1
f 8/4/1 29/4/1 22/4/1
f 23/1/6 11/5/6 9/5/6
f 29/4/5 9/5/5 22/4/5
f 71/4/1 36/4/1 43/4/1
f 71/4/5 55/4/5 47/4/5
f 74/8/1 48/14/1 61/9/1
f 37/3/7 12/2/7 35/7/7
f 36/4/5 10/2/5 37/3/5
f 47/4/4 64/4/4 48/4/4
f 30/15/1 44/16/1 38/15/1
f 59/4/5 49/4/5 67/4/5
f 35/7/1 41/17/1 45/18/1
f 69/4/1 21/4/1 36/4/1
f 63/9/1 54/9/1 52/9/1
f 60/4/7 51/4/7 56/4/7
f 35/7/7 44/16/7 37/3/7
f 42/4/6 55/4/6 40/4/6
f 58/4/5 56/4/5 53/4/5
f 52/4/6 53/4/6 51/4/6
f 49/4/8 65/4/8 66/4/8
f 49/4/8 54/4/8 50/4/8
f 68/4/4 48/4/4 73/4/4
f 44/16/9 42/4/9 40/4/9
f 55/4/1 56/4/1 57/4/1
f 61/9/1 63/9/1 60/19/1
f 61/4/3 56/4/3 55/4/3
f 65/4/2 67/4/2 66/4/2
f 62/20/1 64/14/1 50/9/1
f 68/4/5 70/4/5 71/4/5
f 73/14/1 75/11/1 72/14/1
f 73/4/2 69/4/2 68/4/2
f 69/4/8 14/4/8 7/4/8
f 38/15/1 56/4/1 51/4/1
f 44/4/1 43/4/1 56/4/1
f 43/4/1 57/4/1 56/4/1
f 37/4/5 71/4/5 36/4/5
f 107/3/1 84/5/1 98/1/1
f 88/4/10 82/4/10 83/4/10
f 87/2/11 84/5/11 85/2/11
f 102/4/6 83/4/6 100/4/6
f 87/2/1 88/13/1 86/5/1
f 110/9/1 139/11/1 105/7/1
f 82/4/1 97/4/1 83/4/1
f 139/11/1 89/6/1 87/2/1
f 85/2/5 97/4/5 96/4/5
f 86/5/1 102/12/1 101/1/1
f 83/4/1 104/4/1 100/4/1
f 86/5/4 98/1/4 84/5/4
f 84/5/5 104/4/5 97/4/5
f 111/4/1 106/4/1 135/4/1
f 115/4/5 119/4/5 135/4/5
f 125/9/1 116/14/1 138/8/1
f 87/2/7 107/3/7 105/7/7
f 85/2/5 106/4/5 107/3/5
f 128/4/6 115/4/6 116/4/6
f 30/15/1 112/16/1 107/3/1
f 131/4/5 117/4/5 123/4/5
f 105/7/1 113/18/1 109/17/1
f 106/4/1 96/4/1 133/4/1
f 52/9/1 118/9/1 127/9/1
f 51/4/7 124/4/7 120/4/7
f 112/16/7 105/7/7 107/3/7
f 119/4/4 110/4/4 108/4/4
f 53/4/5 120/4/5 122/4/5
f 129/4/8 117/4/8 130/4/8
f 54/4/8 117/4/8 118/4/8
f 116/4/6 132/4/6 137/4/6
f 110/4/12 112/16/12 108/4/12
f 119/4/1 121/4/1 120/4/1
f 127/9/1 125/9/1 124/19/1
f 120/4/11 125/4/11 119/4/11
f 131/4/10 129/4/10 130/4/10
f 118/9/1 128/14/1 126/20/1
f 132/4/5 134/4/5 133/4/5
f 139/11/1 137/14/1 136/14/1
f 133/4/10 137/4/10 132/4/10
f 89/4/8 133/4/8 82/4/8
f 38/15/1 120/4/1 112/16/1
f 112/4/1 120/4/1 111/4/1
f 111/4/1 120/4/1 121/4/1
f 135/4/5 111/4/5 112/4/5
f 168/3/1 148/5/1 23/1/1
f 152/4/11 146/4/11 147/4/11
f 151/2/10 148/5/10 149/2/10
f 27/4/4 147/4/4 25/4/4
f 151/2/1 152/13/1 150/5/1
f 173/9/1 206/11/1 166/7/1
f 146/4/1 161/4/1 147/4/1
f 206/11/1 153/6/1 151/2/1
f 149/2/5 161/4/5 160/4/5
f 150/5/1 27/12/1 26/1/1
f 147/4/1 29/4/1 25/4/1
f 150/5/6 23/1/6 148/5/6
f 148/5/5 29/4/5 161/4/5
f 174/4/1 167/4/1 202/4/1
f 178/4/5 186/4/5 202/4/5
f 192/9/1 179/14/1 205/8/1
f 151/2/8 168/3/8 166/7/8
f 149/2/5 167/4/5 168/3/5
f 195/4/4 178/4/4 179/4/4
f 162/15/1 175/16/1 168/3/1
f 198/4/5 180/4/5 190/4/5
f 166/7/1 176/18/1 172/17/1
f 167/4/1 160/4/1 200/4/1
f 183/9/1 181/9/1 194/9/1
f 182/4/8 191/4/8 187/4/8
f 175/16/8 166/7/8 168/3/8
f 186/4/6 173/4/6 171/4/6
f 184/4/5 187/4/5 189/4/5
f 184/4/6 183/4/6 182/4/6
f 196/4/7 180/4/7 197/4/7
f 185/4/7 180/4/7 181/4/7
f 179/4/4 199/4/4 204/4/4
f 173/4/13 175/16/13 171/4/13
f 186/4/1 188/4/1 187/4/1
f 194/9/1 192/9/1 191/19/1
f 187/4/10 192/4/10 186/4/10
f 198/4/11 196/4/11 197/4/11
f 181/9/1 195/14/1 193/20/1
f 199/4/5 201/4/5 200/4/5
f 206/11/1 204/14/1 203/14/1
f 200/4/11 204/4/11 199/4/11
f 153/4/7 200/4/7 146/4/7
f 169/15/1 187/4/1 175/16/1
f 175/4/1 187/4/1 174/4/1
f 174/4/1 187/4/1 188/4/1
f 202/4/5 174/4/5 175/4/5
f 98/1/1 216/2/1 231/3/1
f 213/4/3 219/4/3 214/4/3
f 215/5/2 218/2/2 216/2/2
f 214/4/6 102/4/6 100/4/6
f 217/5/1 220/6/1 218/2/1
f 229/7/1 262/8/1 234/9/1
f 213/4/1 228/4/1 227/4/1
f 218/2/1 260/10/1 263/11/1
f 228/4/5 216/2/5 227/4/5
f 217/5/1 102/12/1 219/13/1
f 214/4/1 104/4/1 228/4/1
f 98/1/4 217/5/4 215/5/4
f 104/4/5 215/5/5 228/4/5
f 259/4/1 230/4/1 235/4/1
f 259/4/5 243/4/5 239/4/5
f 262/8/1 240/14/1 249/9/1
f 231/3/8 218/2/8 229/7/8
f 230/4/5 216/2/5 231/3/5
f 239/4/6 252/4/6 240/4/6
f 162/15/1 236/16/1 169/15/1
f 247/4/5 241/4/5 255/4/5
f 229/7/1 233/17/1 237/18/1
f 257/4/1 227/4/1 230/4/1
f 251/9/1 185/9/1 183/9/1
f 248/4/8 182/4/8 244/4/8
f 229/7/8 236/16/8 231/3/8
f 234/4/4 243/4/4 232/4/4
f 246/4/5 244/4/5 184/4/5
f 241/4/7 253/4/7 254/4/7
f 241/4/7 185/4/7 242/4/7
f 256/4/6 240/4/6 261/4/6
f 236/16/14 234/4/14 232/4/14
f 243/4/1 244/4/1 245/4/1
f 249/9/1 251/9/1 248/19/1
f 249/4/2 244/4/2 243/4/2
f 253/4/3 255/4/3 254/4/3
f 250/20/1 252/14/1 242/9/1
f 256/4/5 258/4/5 259/4/5
f 261/14/1 263/11/1 260/14/1
f 261/4/3 257/4/3 256/4/3
f 257/4/7 220/4/7 213/4/7
f 169/15/1 244/4/1 182/4/1
f 236/4/1 235/4/1 244/4/1
f 235/4/1 245/4/1 244/4/1
f 231/4/5 259/4/5 230/4/5
f 30/15/1 34/21/1 23/1/1
f 23/1/1 9/5/1 10/2/1
f 37/3/1 30/15/1 23/1/1
f 7/4/2 14/4/2 13/4/2
f 9/5/3 11/5/3 12/2/3
f 8/4/4 13/4/4 27/4/4
f 11/5/1 13/13/1 14/6/1
f 42/9/1 41/17/1 35/7/1
f 35/7/1 75/11/1 74/8/1
f 7/4/1 8/4/1 22/4/1
f 75/11/1 35/7/1 12/2/1
f 12/2/1 14/6/1 72/10/1
f 22/4/5 9/5/5 10/2/5
f 11/5/1 26/1/1 27/12/1
f 8/4/1 25/4/1 29/4/1
f 23/1/6 26/1/6 11/5/6
f 29/4/5 23/1/5 9/5/5
f 43/4/1 40/4/1 71/4/1
f 71/4/1 70/4/1 36/4/1
f 47/4/5 68/4/5 71/4/5
f 71/4/5 40/4/5 55/4/5
f 55/4/5 59/4/5 47/4/5
f 61/9/1 42/9/1 74/8/1
f 74/8/1 73/14/1 48/14/1
f 48/14/1 62/20/1 61/9/1
f 37/3/7 10/2/7 12/2/7
f 36/4/5 21/4/5 10/2/5
f 47/4/4 67/4/4 64/4/4
f 30/15/1 37/3/1 44/16/1
f 67/4/5 47/4/5 59/4/5
f 59/4/5 58/4/5 49/4/5
f 49/4/5 66/4/5 67/4/5
f 36/4/1 70/4/1 69/4/1
f 69/4/1 7/4/1 21/4/1
f 52/9/1 60/19/1 63/9/1
f 63/9/1 50/9/1 54/9/1
f 60/4/7 52/4/7 51/4/7
f 35/7/7 45/18/7 44/16/7
f 42/4/6 61/4/6 55/4/6
f 53/4/5 49/4/5 58/4/5
f 58/4/5 57/4/5 56/4/5
f 56/4/5 51/4/5 53/4/5
f 52/4/6 54/4/6 53/4/6
f 49/4/8 50/4/8 65/4/8
f 49/4/8 53/4/8 54/4/8
f 68/4/4 47/4/4 48/4/4
f 44/16/15 45/18/15 42/4/15
f 57/4/5 58/4/5 59/4/5
f 57/4/1 59/4/1 55/4/1
f 61/9/1 62/9/1 63/9/1
f 61/4/3 60/4/3 56/4/3
f 65/4/2 64/4/2 67/4/2
f 50/9/1 63/9/1 62/20/1
f 62/20/1 48/14/1 64/14/1
f 64/14/1 65/8/1 50/9/1
f 68/4/5 69/4/5 70/4/5
f 73/14/1 74/8/1 75/11/1
f 73/4/2 72/4/2 69/4/2
f 69/4/8 72/4/8 14/4/8
f 38/15/1 44/16/1 56/4/1
f 44/4/1 43/4/1 40/4/1
f 44/4/5 40/4/5 71/4/5
f 37/4/5 44/4/5 71/4/5
f 98/1/1 34/21/1 30/15/1
f 107/3/1 85/2/1 84/5/1
f 98/1/1 30/15/1 107/3/1
f 88/4/10 89/4/10 82/4/10
f 87/2/11 86/5/11 84/5/11
f 102/4/6 88/4/6 83/4/6
f 87/2/1 89/6/1 88/13/1
f 105/7/1 109/17/1 110/9/1
f 110/9/1 138/8/1 139/11/1
f 82/4/1 96/4/1 97/4/1
f 87/2/1 105/7/1 139/11/1
f 139/11/1 136/10/1 89/6/1
f 85/2/5 84/5/5 97/4/5
f 86/5/1 88/13/1 102/12/1
f 83/4/1 97/4/1 104/4/1
f 86/5/4 101/1/4 98/1/4
f 84/5/5 98/1/5 104/4/5
f 135/4/1 108/4/1 111/4/1
f 106/4/1 134/4/1 135/4/1
f 135/4/5 132/4/5 115/4/5
f 115/4/5 123/4/5 119/4/5
f 119/4/5 108/4/5 135/4/5
f 138/8/1 110/9/1 125/9/1
f 125/9/1 126/20/1 116/14/1
f 116/14/1 137/14/1 138/8/1
f 87/2/7 85/2/7 107/3/7
f 85/2/5 96/4/5 106/4/5
f 128/4/6 131/4/6 115/4/6
f 30/15/1 38/15/1 112/16/1
f 123/4/5 115/4/5 131/4/5
f 131/4/5 130/4/5 117/4/5
f 117/4/5 122/4/5 123/4/5
f 133/4/1 134/4/1 106/4/1
f 96/4/1 82/4/1 133/4/1
f 127/9/1 124/19/1 52/9/1
f 52/9/1 54/9/1 118/9/1
f 51/4/7 52/4/7 124/4/7
f 112/16/7 113/18/7 105/7/7
f 119/4/4 125/4/4 110/4/4
f 122/4/5 117/4/5 53/4/5
f 53/4/5 51/4/5 120/4/5
f 120/4/5 121/4/5 122/4/5
f 129/4/8 118/4/8 117/4/8
f 54/4/8 53/4/8 117/4/8
f 116/4/6 115/4/6 132/4/6
f 110/4/16 113/18/16 112/16/16
f 123/4/5 122/4/5 121/4/5
f 119/4/1 123/4/1 121/4/1
f 127/9/1 126/9/1 125/9/1
f 120/4/11 124/4/11 125/4/11
f 131/4/10 128/4/10 129/4/10
f 126/20/1 127/9/1 118/9/1
f 118/9/1 129/8/1 128/14/1
f 128/14/1 116/14/1 126/20/1
f 132/4/5 135/4/5 134/4/5
f 139/11/1 138/8/1 137/14/1
f 133/4/10 136/4/10 137/4/10
f 89/4/8 136/4/8 133/4/8
f 38/15/1 51/4/1 120/4/1
f 107/4/1 106/4/1 134/4/1
f 107/4/5 134/4/5 135/4/5
f 112/4/5 107/4/5 135/4/5
f 23/1/1 34/21/1 162/15/1
f 168/3/1 149/2/1 148/5/1
f 23/1/1 162/15/1 168/3/1
f 152/4/11 153/4/11 146/4/11
f 151/2/10 150/5/10 148/5/10
f 27/4/4 152/4/4 147/4/4
f 151/2/1 153/6/1 152/13/1
f 166/7/1 172/17/1 173/9/1
f 173/9/1 205/8/1 206/11/1
f 146/4/1 160/4/1 161/4/1
f 151/2/1 166/7/1 206/11/1
f 206/11/1 203/10/1 153/6/1
f 149/2/5 148/5/5 161/4/5
f 150/5/1 152/13/1 27/12/1
f 147/4/1 161/4/1 29/4/1
f 150/5/6 26/1/6 23/1/6
f 148/5/5 23/1/5 29/4/5
f 202/4/1 171/4/1 174/4/1
f 167/4/1 201/4/1 202/4/1
f 202/4/5 199/4/5 178/4/5
f 178/4/5 190/4/5 186/4/5
f 186/4/5 171/4/5 202/4/5
f 205/8/1 173/9/1 192/9/1
f 192/9/1 193/20/1 179/14/1
f 179/14/1 204/14/1 205/8/1
f 151/2/8 149/2/8 168/3/8
f 149/2/5 160/4/5 167/4/5
f 195/4/4 198/4/4 178/4/4
f 162/15/1 169/15/1 175/16/1
f 190/4/5 178/4/5 198/4/5
f 198/4/5 197/4/5 180/4/5
f 180/4/5 189/4/5 190/4/5
f 200/4/1 201/4/1 167/4/1
f 160/4/1 146/4/1 200/4/1
f 194/9/1 191/19/1 183/9/1
f 183/9/1 185/9/1 181/9/1
f 182/4/8 183/4/8 191/4/8
f 175/16/8 176/18/8 166/7/8
f 186/4/6 192/4/6 173/4/6
f 189/4/5 180/4/5 184/4/5
f 184/4/5 182/4/5 187/4/5
f 187/4/5 188/4/5 189/4/5
f 184/4/6 185/4/6 183/4/6
f 196/4/7 181/4/7 180/4/7
f 185/4/7 184/4/7 180/4/7
f 179/4/4 178/4/4 199/4/4
f 173/4/15 176/18/15 175/16/15
f 190/4/5 189/4/5 188/4/5
f 186/4/1 190/4/1 188/4/1
f 194/9/1 193/9/1 192/9/1
f 187/4/10 191/4/10 192/4/10
f 198/4/11 195/4/11 196/4/11
f 193/20/1 194/9/1 181/9/1
f 181/9/1 196/8/1 195/14/1
f 195/14/1 179/14/1 193/20/1
f 199/4/5 202/4/5 201/4/5
f 206/11/1 205/8/1 204/14/1
f 200/4/11 203/4/11 204/4/11
f 153/4/7 203/4/7 200/4/7
f 169/15/1 182/4/1 187/4/1
f 168/4/1 167/4/1 201/4/1
f 168/4/5 201/4/5 202/4/5
f 175/4/5 168/4/5 202/4/5
f 162/15/1 34/21/1 98/1/1
f 98/1/1 215/5/1 216/2/1
f 231/3/1 162/15/1 98/1/1
f 213/4/3 220/4/3 219/4/3
f 215/5/2 217/5/2 218/2/2
f 214/4/6 219/4/6 102/4/6
f 217/5/1 219/13/1 220/6/1
f 234/9/1 233/17/1 229/7/1
f 229/7/1 263/11/1 262/8/1
f 213/4/1 214/4/1 228/4/1
f 263/11/1 229/7/1 218/2/1
f 218/2/1 220/6/1 260/10/1
f 228/4/5 215/5/5 216/2/5
f 217/5/1 101/1/1 102/12/1
f 214/4/1 100/4/1 104/4/1
f 98/1/4 101/1/4 217/5/4
f 104/4/5 98/1/5 215/5/5
f 235/4/1 232/4/1 259/4/1
f 259/4/1 258/4/1 230/4/1
f 239/4/5 256/4/5 259/4/5
f 259/4/5 232/4/5 243/4/5
f 243/4/5 247/4/5 239/4/5
f 249/9/1 234/9/1 262/8/1
f 262/8/1 261/14/1 240/14/1
f 240/14/1 250/20/1 249/9/1
f 231/3/8 216/2/8 218/2/8
f 230/4/5 227/4/5 216/2/5
f 239/4/6 255/4/6 252/4/6
f 162/15/1 231/3/1 236/16/1
f 255/4/5 239/4/5 247/4/5
f 247/4/5 246/4/5 241/4/5
f 241/4/5 254/4/5 255/4/5
f 230/4/1 258/4/1 257/4/1
f 257/4/1 213/4/1 227/4/1
f 183/9/1 248/19/1 251/9/1
f 251/9/1 242/9/1 185/9/1
f 248/4/8 183/4/8 182/4/8
f 229/7/8 237/18/8 236/16/8
f 234/4/4 249/4/4 243/4/4
f 184/4/5 241/4/5 246/4/5
f 246/4/5 245/4/5 244/4/5
f 244/4/5 182/4/5 184/4/5
f 241/4/7 242/4/7 253/4/7
f 241/4/7 184/4/7 185/4/7
f 256/4/6 239/4/6 240/4/6
f 236/16/16 237/18/16 234/4/16
f 245/4/5 246/4/5 247/4/5
f 245/4/1 247/4/1 243/4/1
f 249/9/1 250/9/1 251/9/1
f 249/4/2 248/4/2 244/4/2
f 253/4/3 252/4/3 255/4/3
f 242/9/1 251/9/1 250/20/1
f 250/20/1 240/14/1 252/14/1
f 252/14/1 253/8/1 242/9/1
f 256/4/5 257/4/5 258/4/5
f 261/14/1 262/8/1 263/11/1
f 261/4/3 260/4/3 257/4/3
f 257/4/7 260/4/7 220/4/7
f 169/15/1 236/16/1 244/4/1
f 236/4/1 235/4/1 232/4/1
f 236/4/5 232/4/5 259/4/5
f 231/4/5 236/4/5 259/4/5
l 20 6
l 5 19
l 17 3
l 4 18
l 15 1
l 2 16
l 24 28
l 31 33
l 33 30
l 32 39
l 33 51
l 70 46
l 95 81
l 80 94
l 92 78
l 79 93
l 90 76
l 77 91
l 99 103
l 134 114
l 159 145
l 144 158
l 156 142
l 143 157
l 154 140
l 141 155
l 163 165
l 165 162
l 164 170
l 165 182
l 201 177
l 226 212
l 211 225
l 223 209
l 210 224
l 221 207
l 208 222
l 258 238
